<?xml version="1.0" standalone="no"?><!DOCTYPE svg PUBLIC "-//W3C//DTD SVG 1.1//EN" "http://www.w3.org/Graphics/SVG/1.1/DTD/svg11.dtd"><svg t="1592827888353" class="icon" viewBox="0 0 1172 1024" version="1.1" xmlns="http://www.w3.org/2000/svg" p-id="4915" xmlns:xlink="http://www.w3.org/1999/xlink" width="146.5" height="128"><defs><style type="text/css"></style></defs><path d="M905.996152 511.471821l-308.725153-0.177012c-5.487356-0.00571-10.169595 4.436707-10.181016 9.941193l-0.177011 378.484808 308.702314 0.177011c5.487356 0.00571 10.432257-6.743566 10.432257-12.230922V511.471821h-0.051391z" fill="#2C98F7" p-id="4916"></path><path d="M866.025818 512.476789h-273.414218c-3.220467 1.667334-5.510196 4.933481-5.521617 8.759213l-0.177011 378.484808 281.97358 0.159881a5.612977 5.612977 0 0 0 2.843604-4.84212V518.186837a5.687208 5.687208 0 0 0-5.704338-5.710048z" fill="#49BBFD" p-id="4917"></path><path d="M562.428287 751.345218a5.710048 5.710048 0 0 1-5.710048-5.710048l0.057101-247.108028a15.679791 15.679791 0 0 1 15.662661-15.645531l322.726191 0.188432c8.622172 0 15.634111 7.023359 15.634111 15.656951l-0.022841 31.313902a5.710048 5.710048 0 1 1-11.420095-0.01713l0.02284-31.296772a4.225435 4.225435 0 0 0-4.219725-4.231145l-322.720481-0.188432a4.248276 4.248276 0 0 0-4.242566 4.231145l-0.0571 247.108028a5.710048 5.710048 0 0 1-5.710048 5.698628zM563.393285 792.269131a5.710048 5.710048 0 0 1-5.710048-5.710048v-11.420096a5.710048 5.710048 0 1 1 11.420096 0v11.420096c0 3.146236-2.558101 5.710048-5.710048 5.710048zM860.789704 905.585029l-288.477324-0.159881a15.679791 15.679791 0 0 1-15.656951-15.645531l0.03426-76.571741a5.710048 5.710048 0 1 1 11.420096 0l-0.034261 76.571741c0 2.323989 1.901446 4.225435 4.242566 4.225435l288.477324 0.159881a5.710048 5.710048 0 1 1-0.00571 11.420096zM895.072831 906.470086h-6.212532c-3.163366 0-5.710048-2.552391-5.710048-5.710047s2.546681-5.710048 5.710048-5.710048h6.212532c3.825732 0 4.351056-1.102039 4.625139-1.707304 0.862217-1.850055 0.862217-5.321765 0.862217-8.673563l5.710048-0.422544 5.710047 0.416834c0 4.596588 0 9.341638-1.929996 13.492843-1.758695 3.791472-5.784278 8.31383-14.977455 8.313829zM905.014024 848.416031a5.710048 5.710048 0 0 1-5.710048-5.710048l0.045681-249.346367a5.710048 5.710048 0 1 1 11.420095 0l-0.04568 249.346367c0 3.151946-2.569522 5.710048-5.710048 5.710048zM905.996152 575.287315a5.710048 5.710048 0 0 1-5.710047-5.710048v-17.130143c0-3.163366 2.552391-5.710048 5.710047-5.710048 3.163366 0 5.710048 2.546681 5.710048 5.710048v17.130143c0 3.146236-2.558101 5.710048-5.710048 5.710048z" fill="" p-id="4918"></path><path d="M585.314159 562.867961l-308.291191-0.177012a9.935483 9.935483 0 0 0-9.946903 9.935483l-0.091361 327.094378 308.302611 0.177011a9.952613 9.952613 0 0 0 9.952613-9.935483l0.074231-327.094377z" fill="#FDB900" p-id="4919"></path><path d="M546.263142 563.867219h-273.853892a9.912643 9.912643 0 0 0-5.327475 8.753503l-0.091361 327.094378 284.982776 0.165591V569.577267a5.710048 5.710048 0 0 0-5.710048-5.710048z" fill="#FEDB03" p-id="4920"></path><path d="M242.677031 868.401198a5.710048 5.710048 0 0 1-5.710048-5.710048l0.045681-312.773578a15.674081 15.674081 0 0 1 15.662661-15.645531l248.495569 0.188432a15.662661 15.662661 0 0 1 15.639821 15.651241l-0.02284 31.313902a5.710048 5.710048 0 1 1-11.420096-0.01713l0.022841-31.308192a4.225435 4.225435 0 0 0-4.225436-4.219725l-248.495569-0.194142a4.242566 4.242566 0 0 0-4.236856 4.231145l-0.04568 312.773578a5.710048 5.710048 0 0 1-5.710048 5.710048zM266.984704 905.436568l-14.42358-0.01142a15.54275 15.54275 0 0 1-11.077493-4.608009 15.50849 15.50849 0 0 1-4.556618-11.066073l0.01142-8.039747a5.710048 5.710048 0 0 1 5.710048-5.710048h0.00571c3.151946 0.01142 5.710048 2.563811 5.704338 5.721468l-0.011421 8.051168a4.202595 4.202595 0 0 0 4.231146 4.219725l14.417871 0.01142a5.721468 5.721468 0 0 1-0.011421 11.431516zM495.352356 905.602159h-0.01713l-208.890679-0.142751a5.710048 5.710048 0 0 1 0-11.420096l208.890679 0.142752h0.00571c2.329699 0 4.225435-1.901446 4.231145-4.236856l0.0571-260.406729a5.710048 5.710048 0 1 1 11.420096 0l-0.0571 260.418149a15.662661 15.662661 0 0 1-15.639821 15.645531z" fill="" p-id="4921"></path><path d="M363.541613 635.482638c0 2.780793-2.329699 8.31954-5.87564 8.31954h-51.45324c-3.55165 0-5.481646-5.538746-5.481646-8.31954v-25.261251c0-2.797923 1.929996-6.389543 5.481646-6.389543h51.45324c3.54594 0 5.875639 3.59162 5.87564 6.389543v25.261251z" fill="#FFFFFF" p-id="4922"></path><path d="M356.877987 660.938031h-45.680383c-7.834186 0-10.472228-9.627141-10.472227-14.006747v-22.429067c0-4.470967 2.752243-9.244567 10.472227-9.244568h45.680383c7.394512 0 12.367964 3.705821 12.367963 9.244568v22.429067c0.00571 4.78502-5.218984 14.006747-12.367963 14.006747z m-44.104409-11.420095h43.282162c0.685206-0.668076 1.633074-2.186948 1.798665-2.969225l-0.02284-19.830996a7.857026 7.857026 0 0 0-0.953578-0.0571h-44.732515v20.253539c0.00571 0.599555 0.296922 1.781535 0.628106 2.603782z" fill="" p-id="4923"></path><path d="M363.541613 732.553451c0 2.780793-2.329699 8.31954-5.87564 8.319539h-51.45324c-3.55165 0-5.481646-5.538746-5.481646-8.319539v-25.261252c0-2.797923 1.929996-6.389543 5.481646-6.389543h51.45324c3.54594 0 5.875639 3.59162 5.87564 6.389543v25.261252z" fill="#FFFFFF" p-id="4924"></path><path d="M356.877987 758.008844h-45.680383c-7.834186 0-10.472228-9.627141-10.472227-14.006747v-22.429068c0-4.470967 2.752243-9.244567 10.472227-9.244567h45.680383c7.394512 0 12.367964 3.705821 12.367963 9.244567v22.429068c0.00571 4.78502-5.218984 14.006747-12.367963 14.006747z m-44.104409-11.420096h43.282162c0.685206-0.668076 1.633074-2.186948 1.798665-2.969225l-0.02284-19.830996a7.857026 7.857026 0 0 0-0.953578-0.0571h-44.732515v20.25354c0.00571 0.599555 0.296922 1.781535 0.628106 2.603781z" fill="" p-id="4925"></path><path d="M357.831565 835.334311c0 2.786503-2.329699 8.31954-5.875639 8.31954h-51.453241c-3.55165 0-5.481646-5.533036-5.481646-8.31954v-25.261251c0-2.797923 1.929996-6.389543 5.481646-6.389544h51.453241c3.54594 0 5.875639 3.59162 5.875639 6.389544v25.261251z" fill="#FFFFFF" p-id="4926"></path><path d="M356.877987 860.789704h-45.680383c-7.834186 0-10.472228-9.627141-10.472227-14.006747v-22.429068c0-4.470967 2.752243-9.244567 10.472227-9.244567h45.680383c7.394512 0 12.367964 3.705821 12.367963 9.244567v22.429068c0.00571 4.78502-5.218984 14.006747-12.367963 14.006747z m-44.104409-11.420096h43.282162c0.685206-0.668076 1.633074-2.186948 1.798665-2.969224l-0.02284-19.830996a7.857026 7.857026 0 0 0-0.953578-0.057101h-44.732515v20.25354c0.00571 0.599555 0.296922 1.781535 0.628106 2.603781z" fill="" p-id="4927"></path><path d="M711.854528 589.802256c0 2.780793-2.329699 8.31954-5.847089 8.31954h-51.476081c-3.55736 0-5.487356-5.538746-5.487356-8.31954v-25.261251c0-2.797923 1.929996-6.389543 5.487356-6.389544h51.476081c3.517389 0 5.847089 3.59162 5.847089 6.389544v25.261251z" fill="#FFFFFF" p-id="4928"></path><path d="M710.90095 615.257649h-45.680383c-7.839896 0-10.472228-9.627141-10.472227-14.006747v-22.429068c0-4.470967 2.740823-9.244567 10.472227-9.244567h45.680383c7.394512 0 12.367964 3.705821 12.367963 9.244567v22.429068c0.00571 4.78502-5.230404 14.006747-12.367963 14.006747z m-44.098699-11.420095h43.287872c0.685206-0.656655 1.627364-2.175528 1.787245-2.957805l-0.02284-19.842416a7.754245 7.754245 0 0 0-0.947868-0.057101h-44.732515v20.25354c0 0.599555 0.285502 1.781535 0.628106 2.603782z" fill="" p-id="4929"></path><path d="M711.854528 704.003212c0 2.780793-2.329699 8.31954-5.847089 8.31954h-51.476081c-3.55736 0-5.487356-5.538746-5.487356-8.31954v-25.261252c0-2.797923 1.929996-6.389543 5.487356-6.389543h51.476081c3.517389 0 5.847089 3.59162 5.847089 6.389543v25.261252z" fill="#FFFFFF" p-id="4930"></path><path d="M710.90095 729.458605h-45.680383c-7.839896 0-10.472228-9.627141-10.472227-14.006747v-22.429068c0-4.470967 2.740823-9.244567 10.472227-9.244567h45.680383c7.394512 0 12.367964 3.705821 12.367963 9.244567v22.429068c0.00571 4.78502-5.230404 14.006747-12.367963 14.006747z m-44.098699-11.420096h43.287872c0.685206-0.656655 1.627364-2.175528 1.787245-2.957804l-0.02284-19.842416a7.754245 7.754245 0 0 0-0.947868-0.057101h-44.732515v20.25354c0 0.599555 0.285502 1.781535 0.628106 2.603781z" fill="" p-id="4931"></path><path d="M826.055483 704.003212c0 2.780793-2.329699 8.31954-5.847089 8.31954h-51.47608c-3.55736 0-5.487356-5.538746-5.487356-8.31954v-25.261252c0-2.797923 1.929996-6.389543 5.487356-6.389543h51.47608c3.517389 0 5.847089 3.59162 5.847089 6.389543v25.261252zM711.854528 818.204168c0 2.786503-2.329699 8.31954-5.847089 8.319539h-51.476081c-3.55736 0-5.487356-5.533036-5.487356-8.319539v-25.261252c0-2.797923 1.929996-6.389543 5.487356-6.389543h51.476081c3.517389 0 5.847089 3.59162 5.847089 6.389543v25.261252z" fill="#FFFFFF" p-id="4932"></path><path d="M710.90095 843.659561h-45.680383c-7.839896 0-10.472228-9.627141-10.472227-14.006748v-22.429067c0-4.470967 2.740823-9.244567 10.472227-9.244568h45.680383c7.394512 0 12.367964 3.705821 12.367963 9.244568v22.429067c0.00571 4.78502-5.230404 14.006747-12.367963 14.006748z m-44.098699-11.420096h43.287872c0.685206-0.656655 1.627364-2.175528 1.787245-2.957805l-0.02284-19.842416a7.754245 7.754245 0 0 0-0.947868-0.0571h-44.732515v20.253539c0 0.599555 0.285502 1.781535 0.628106 2.603782z" fill="" p-id="4933"></path><path d="M826.055483 818.204168c0 2.786503-2.329699 8.31954-5.847089 8.319539h-51.47608c-3.55736 0-5.487356-5.533036-5.487356-8.319539v-25.261252c0-2.797923 1.929996-6.389543 5.487356-6.389543h51.47608c3.517389 0 5.847089 3.59162 5.847089 6.389543v25.261252z" fill="#FFFFFF" p-id="4934"></path><path d="M825.101905 843.659561h-45.680382c-7.839896 0-10.472228-9.627141-10.472228-14.006748v-22.429067c0-4.470967 2.740823-9.244567 10.472228-9.244568h45.680382c7.394512 0 12.367964 3.705821 12.367964 9.244568v22.429067c0.00571 4.78502-5.230404 14.006747-12.367964 14.006748z m-44.098699-11.420096h43.287873c0.685206-0.656655 1.627364-2.175528 1.787245-2.957805l-0.022841-19.842416a7.754245 7.754245 0 0 0-0.947868-0.0571h-44.732514v20.253539c0 0.599555 0.285502 1.781535 0.628105 2.603782zM825.101905 729.458605h-45.680382c-7.839896 0-10.472228-9.627141-10.472228-14.006747v-22.429068c0-4.470967 2.740823-9.244567 10.472228-9.244567h45.680382c7.394512 0 12.367964 3.705821 12.367964 9.244567v22.429068c0.00571 4.78502-5.230404 14.006747-12.367964 14.006747z m-44.098699-11.420096h43.287873c0.685206-0.656655 1.627364-2.175528 1.787245-2.957804l-0.022841-19.842416a7.754245 7.754245 0 0 0-0.947868-0.057101h-44.732514v20.25354c0 0.599555 0.285502 1.781535 0.628105 2.603781z" fill="" p-id="4935"></path><path d="M826.055483 589.802256c0 2.780793-2.329699 8.31954-5.847089 8.31954h-51.47608c-3.55736 0-5.487356-5.538746-5.487356-8.31954v-25.261251c0-2.797923 1.929996-6.389543 5.487356-6.389544h51.47608c3.517389 0 5.847089 3.59162 5.847089 6.389544v25.261251z" fill="#FFFFFF" p-id="4936"></path><path d="M825.101905 615.257649h-45.680382c-7.839896 0-10.472228-9.627141-10.472228-14.006747v-22.429068c0-4.470967 2.740823-9.244567 10.472228-9.244567h45.680382c7.394512 0 12.367964 3.705821 12.367964 9.244567v22.429068c0.00571 4.78502-5.230404 14.006747-12.367964 14.006747z m-44.098699-11.420095h43.287873c0.685206-0.656655 1.627364-2.175528 1.787245-2.957805l-0.022841-19.842416a7.754245 7.754245 0 0 0-0.947868-0.057101h-44.732514v20.25354c0 0.599555 0.285502 1.781535 0.628105 2.603782zM489.162664 506.766741a5.710048 5.710048 0 0 1-5.710048-5.710048v-5.710047a5.710048 5.710048 0 0 1 11.420096 0v5.710047a5.710048 5.710048 0 0 1-5.710048 5.710048z" fill="" p-id="4937"></path><path d="M699.492274 378.359187l-0.0571 511.603151a9.946903 9.946903 0 0 1-9.946904 9.935483l-322.743321-0.182721a9.924063 9.924063 0 0 1-9.935483-9.935483l0.085651-562.559618c0.00571-5.481646 4.459547-9.935483 9.952613-9.935484l322.720481 0.188432a9.935483 9.935483 0 0 1 9.924063 9.946903l-0.01142 31.302482" fill="#FFFFFF" p-id="4938"></path><path d="M699.515114 340.170387l-308.29119-0.177012a9.941193 9.941193 0 0 0-9.946903 9.935484l-0.091361 549.797661 308.30832 0.177011a9.941193 9.941193 0 0 0 9.946904-9.935483l0.07423-549.797661z" fill="#2548CE" p-id="4939"></path><path d="M660.464098 341.175355h-273.853892a9.929773 9.929773 0 0 0-5.333185 8.753504l-0.091361 549.797661 282.133461 0.159881a5.607267 5.607267 0 0 0 2.855024-4.84783v-548.164588a5.692918 5.692918 0 0 0-5.710047-5.698628z" fill="#3469F0" p-id="4940"></path><path d="M356.866567 580.043784a5.710048 5.710048 0 0 1-5.710048-5.710047l0.0571-247.108028a15.679791 15.679791 0 0 1 15.662661-15.645531l322.726191 0.188431c8.622172 0 15.634111 7.023359 15.634111 15.656951l-0.02284 31.308192a5.710048 5.710048 0 1 1-11.420096 0l0.022841-31.302482a4.225435 4.225435 0 0 0-4.219726-4.231145l-322.726191-0.205562a4.248276 4.248276 0 0 0-4.242565 4.231146l-0.057101 247.102318a5.710048 5.710048 0 0 1-5.704337 5.715757zM357.831565 620.967697a5.710048 5.710048 0 0 1-5.710048-5.710048v-11.420095a5.710048 5.710048 0 1 1 11.420096 0v11.420095c0 3.146236-2.558101 5.710048-5.710048 5.710048zM689.499691 905.602159h-0.022841l-322.737611-0.182721a15.52562 15.52562 0 0 1-11.083202-4.613719 15.48565 15.48565 0 0 1-4.556619-11.066073l0.01142-247.838914a5.710048 5.710048 0 1 1 11.420096 0l-0.01142 247.861755a4.202595 4.202595 0 0 0 4.225435 4.231145l322.737611 0.182721c2.329699 0 4.225435-1.901446 4.236856-4.236855l0.0571-483.104303a5.710048 5.710048 0 1 1 11.420096 0l-0.057101 483.115723a15.656951 15.656951 0 0 1-15.63982 15.651241zM700.434432 392.565785a5.710048 5.710048 0 0 1-5.710048-5.710047v-5.710048a5.710048 5.710048 0 1 1 11.420096 0v5.710048a5.710048 5.710048 0 0 1-5.710048 5.710047z" fill="" p-id="4941"></path><path d="M512.002855 483.92655a5.710048 5.710048 0 0 1-5.710048 5.710048h-68.520573a5.710048 5.710048 0 0 1-5.710048-5.710048v-51.39043a5.710048 5.710048 0 0 1 5.710048-5.710048h68.520573a5.710048 5.710048 0 0 1 5.710048 5.710048v51.39043zM626.203811 483.92655c0 3.151946-2.523841 5.710048-5.710048 5.710048h-68.520573a5.710048 5.710048 0 0 1-5.710048-5.710048v-51.39043a5.710048 5.710048 0 0 1 5.710048-5.710048h68.520573c3.186207 0 5.710048 2.558101 5.710048 5.710048v51.39043zM512.002855 655.227984c0 3.163366-2.552391 5.710048-5.710048 5.710047h-68.520573c-3.157656 0-5.710048-2.546681-5.710048-5.710047v-51.39043c0-3.163366 2.552391-5.710048 5.710048-5.710048h68.520573c3.157656 0 5.710048 2.546681 5.710048 5.710048v51.39043zM626.203811 655.227984c0 3.163366-2.523841 5.710048-5.710048 5.710047h-68.520573c-3.157656 0-5.710048-2.546681-5.710048-5.710047v-51.39043c0-3.163366 2.552391-5.710048 5.710048-5.710048h68.520573c3.186207 0 5.710048 2.546681 5.710048 5.710048v51.39043zM512.002855 826.529417c0 3.163366-2.552391 5.710048-5.710048 5.710048h-68.520573c-3.157656 0-5.710048-2.546681-5.710048-5.710048v-51.39043a5.710048 5.710048 0 0 1 5.710048-5.710048h68.520573a5.710048 5.710048 0 0 1 5.710048 5.710048v51.39043zM626.203811 826.529417c0 3.163366-2.523841 5.710048-5.710048 5.710048h-68.520573c-3.157656 0-5.710048-2.546681-5.710048-5.710048v-51.39043a5.710048 5.710048 0 0 1 5.710048-5.710048h68.520573c3.186207 0 5.710048 2.552391 5.710048 5.710048v51.39043z" fill="#FFFFFF" p-id="4942"></path><path d="M517.712903 506.766741h-68.520574c-6.298183 0-11.420096-5.121913-11.420095-11.420095v-51.39043c0-6.298183 5.121913-11.420096 11.420095-11.420096h68.520574c6.298183 0 11.420096 5.121913 11.420095 11.420096v51.39043c0 6.298183-5.121913 11.420096-11.420095 11.420095z m-68.520574-62.810525v51.39043h68.526284l-0.00571-51.39043h-68.520574zM631.913859 506.766741h-68.520574c-6.298183 0-11.420096-5.121913-11.420095-11.420095v-51.39043c0-6.298183 5.121913-11.420096 11.420095-11.420096h68.520574c6.303893 0 11.420096 5.121913 11.420095 11.420096v51.39043c0 6.298183-5.127623 11.420096-11.420095 11.420095z m-68.520574-62.810525v51.39043h68.537704l-0.02284-51.39043H563.393285zM517.712903 678.068175h-68.520574c-6.298183 0-11.420096-5.121913-11.420095-11.420096v-51.39043c0-6.303893 5.121913-11.420096 11.420095-11.420095h68.520574c6.298183 0 11.420096 5.116203 11.420095 11.420095v51.39043c0 6.292473-5.121913 11.420096-11.420095 11.420096z m-68.520574-62.810526v51.39043h68.531994l-0.01142-51.39043h-68.520574zM631.913859 678.068175h-68.520574c-6.298183 0-11.420096-5.121913-11.420095-11.420096v-51.39043c0-6.303893 5.121913-11.420096 11.420095-11.420095h68.520574a11.420096 11.420096 0 0 1 11.420095 11.420095v51.39043c0 6.292473-5.127623 11.420096-11.420095 11.420096z m-68.520574-62.810526v51.39043h68.543414l-0.02284-51.39043h-68.520574zM517.712903 849.369608h-68.520574c-6.298183 0-11.420096-5.121913-11.420095-11.420095v-51.39043c0-6.303893 5.121913-11.420096 11.420095-11.420096h68.520574c6.298183 0 11.420096 5.116203 11.420095 11.420096v51.39043c0 6.292473-5.121913 11.420096-11.420095 11.420095z m-68.520574-62.810525v51.39043h68.531994l-0.01142-51.39043h-68.520574zM631.913859 849.369608h-68.520574c-6.298183 0-11.420096-5.121913-11.420095-11.420095v-51.39043c0-6.303893 5.121913-11.420096 11.420095-11.420096h68.520574a11.420096 11.420096 0 0 1 11.420095 11.420096v51.39043c0 6.292473-5.127623 11.420096-11.420095 11.420095z m-68.520574-62.810525v51.39043h68.543414l-0.02284-51.39043h-68.520574z" fill="" p-id="4943"></path><path d="M688.060758 532.93589v1.427512z" fill="#FFFFFF" p-id="4944"></path><path d="M245.046701 459.013612c-11.859769 0-21.50404-9.644271-21.50404-21.50404s9.644271-21.50404 21.50404-21.50404 21.50404 9.644271 21.50404 21.50404-9.649981 21.50404-21.50404 21.50404z m0-37.298033c-8.707823 0-15.793992 7.086169-15.793992 15.793993s7.086169 15.793992 15.793992 15.793992 15.793992-7.086169 15.793992-15.793992-7.086169-15.793992-15.793992-15.793993z" fill="#E0514B" p-id="4945"></path><path d="M955.485137 590.516012a13.338672 13.338672 0 0 1-13.327252-13.315831 13.344382 13.344382 0 0 1 13.327252-13.327252 13.321541 13.321541 0 0 1 0 26.643083z m0-20.938745c-4.196885 0-7.617204 3.420319-7.617204 7.617204a7.537263 7.537263 0 0 0 7.617204 7.605783 7.611494 7.611494 0 0 0 0-15.222987z" fill="#8DD4C1" p-id="4946"></path><path d="M154.1199 518.135446m-7.799925 0a7.799925 7.799925 0 1 0 15.59985 0 7.799925 7.799925 0 1 0-15.59985 0Z" fill="#8EC796" p-id="4947"></path><path d="M795.849331 388.757184c-15.748312 0-28.550239-12.807637-28.550239-28.550239s12.801927-28.550239 28.550239-28.550239c15.736892 0 28.550239 12.807637 28.550239 28.550239s-12.813347 28.550239-28.550239 28.550239z m0-51.390431c-12.602075 0-22.840191 10.243826-22.840192 22.840192s10.238116 22.840191 22.840192 22.840191c12.590655 0 22.840191-10.243826 22.840191-22.840191s-10.243826-22.840191-22.840191-22.840192z" fill="#FBCE1A" p-id="4948"></path><path d="M650.488644 149.426241c-11.151723 0-20.230699-9.073266-20.230699-20.2307s9.078976-20.230699 20.230699-20.230699 20.230699 9.073266 20.230699 20.230699-9.073266 20.230699-20.230699 20.2307z m0-34.751351c-8.005487 0-14.520652 6.515165-14.520651 14.520651s6.515165 14.520652 14.520651 14.520652c7.999777 0 14.520652-6.515165 14.520652-14.520652s-6.509454-14.520652-14.520652-14.520651z" fill="#4E7AC4" p-id="4949"></path><path d="M907.897598 409.695929m-19.768185 0a19.768185 19.768185 0 1 0 39.536371 0 19.768185 19.768185 0 1 0-39.536371 0Z" fill="#FFAA3B" p-id="4950"></path><path d="M177.605326 630.749009a2.855024 2.855024 0 0 1-1.992806-4.893511l25.917907-25.284092a2.860734 2.860734 0 0 1 3.985613 4.094105l-25.917907 25.284091a2.872154 2.872154 0 0 1-1.992807 0.799407z" fill="#99FFFC" p-id="4951"></path><path d="M203.203471 631.068772a2.883574 2.883574 0 0 1-2.044197-0.862218l-25.278382-25.917907a2.855024 2.855024 0 1 1 4.088394-3.979903l25.278382 25.917907a2.855024 2.855024 0 0 1-2.044197 4.842121z" fill="#99FFFC" p-id="4952"></path><path d="M889.339943 236.966983m-6.321023 0a6.321023 6.321023 0 1 0 12.642046 0 6.321023 6.321023 0 1 0-12.642046 0Z" fill="#FFA6A4" p-id="4953"></path><path d="M209.844256 334.037796m-6.321023 0a6.321023 6.321023 0 1 0 12.642046 0 6.321023 6.321023 0 1 0-12.642046 0Z" fill="#328EFC" p-id="4954"></path><path d="M443.482282 952.150469h-342.602868a5.710048 5.710048 0 1 1 0-11.420096h342.602868a5.710048 5.710048 0 1 1 0 11.420096zM512.002855 952.150469h-39.970334a5.710048 5.710048 0 1 1 0-11.420096h39.970334a5.710048 5.710048 0 1 1 0 11.420096zM546.263142 952.150469h-17.130144a5.710048 5.710048 0 1 1 0-11.420096h17.130144a5.710048 5.710048 0 1 1 0 11.420096zM774.665053 952.150469h-199.851672a5.710048 5.710048 0 1 1 0-11.420096h199.851672a5.710048 5.710048 0 1 1 0 11.420096zM1048.747347 952.150469h-251.242103a5.710048 5.710048 0 1 1 0-11.420096h251.242103a5.710048 5.710048 0 1 1 0 11.420096zM1048.747347 917.890182h-51.39043a5.710048 5.710048 0 1 1 0-11.420096h51.39043a5.710048 5.710048 0 1 1 0 11.420096zM1088.717682 917.890182h-17.130144a5.710048 5.710048 0 1 1 0-11.420096h17.130144a5.710048 5.710048 0 1 1 0 11.420096zM118.009558 917.890182h-45.680383a5.710048 5.710048 0 1 1 0-11.420096h45.680383a5.710048 5.710048 0 1 1 0 11.420096zM139.873331 916.953734c-1.484612 0-2.969225-0.628105-3.997034-1.718724a5.573007 5.573007 0 0 1 0-8.051168c2.055617-2.107008 5.93845-2.107008 8.051168 0 1.084909 1.033519 1.655914 2.506711 1.655913 4.059844 0 1.484612-0.571005 2.969225-1.655913 3.991324a5.687208 5.687208 0 0 1-4.054134 1.718724z" fill="" p-id="4955"></path><path d="M407.50898 99.446192a2.855024 2.855024 0 0 1-2.855023-2.855024v-19.031589a2.855024 2.855024 0 0 1 5.710047 0v19.031589a2.855024 2.855024 0 0 1-2.855024 2.855024zM385.154143 108.7136a2.866444 2.866444 0 0 1-2.021357-0.833667l-13.458582-13.464293a2.855024 2.855024 0 0 1 4.037004-4.037004l13.458582 13.464293a2.855024 2.855024 0 0 1-2.015647 4.870671zM375.898156 131.062727h-19.031589a2.855024 2.855024 0 0 1 0-5.710048h19.031589a2.855024 2.855024 0 0 1 0 5.710048zM371.695561 166.876147a2.855024 2.855024 0 0 1-2.021357-4.870671l13.458582-13.452873a2.855024 2.855024 0 0 1 4.037004 4.037004l-13.458582 13.452873a2.843604 2.843604 0 0 1-2.015647 0.833667zM407.50898 181.716561a2.855024 2.855024 0 0 1-2.855023-2.855024V159.824238a2.855024 2.855024 0 0 1 5.710047 0v19.037299a2.855024 2.855024 0 0 1-2.855024 2.855024zM443.3224 166.876147a2.866444 2.866444 0 0 1-2.021357-0.833667l-13.458582-13.452873a2.855024 2.855024 0 0 1 4.037003-4.037004l13.458583 13.452873a2.855024 2.855024 0 0 1-2.015647 4.870671zM458.151394 131.062727h-19.031589a2.855024 2.855024 0 0 1 0-5.710048h19.031589a2.855024 2.855024 0 0 1 0 5.710048zM429.863818 108.7136a2.855024 2.855024 0 0 1-2.021357-4.870671l13.458582-13.464293a2.855024 2.855024 0 0 1 4.037004 4.037004l-13.458583 13.464293a2.843604 2.843604 0 0 1-2.015646 0.833667z" fill="#FEDB03" p-id="4956"></path><path d="M1035.619947 455.610423a2.855024 2.855024 0 0 1-2.855024-2.855024v-10.871931a2.855024 2.855024 0 0 1 5.710048 0v10.871931a2.855024 2.855024 0 0 1-2.855024 2.855024z" fill="#91E2C5" p-id="4957"></path><path d="M1022.83515 460.897927a2.855024 2.855024 0 0 1-2.021357-0.833667l-7.674304-7.685724a2.860734 2.860734 0 0 1 4.037004-4.042714l7.674304 7.685725a2.855024 2.855024 0 1 1-2.015647 4.87638z" fill="#91E2C5" p-id="4958"></path><path d="M1017.564776 473.665594h-10.871931a2.855024 2.855024 0 0 1 0-5.710048h10.871931a2.855024 2.855024 0 0 1 0 5.710048z" fill="#91E2C5" p-id="4959"></path><path d="M1015.166556 494.124695a2.855024 2.855024 0 0 1-2.021357-4.87067l7.674304-7.685725a2.855024 2.855024 0 0 1 4.037004 4.031294l-7.674304 7.685724a2.815054 2.815054 0 0 1-2.015647 0.839377z" fill="#91E2C5" p-id="4960"></path><path d="M1035.619947 502.598406a2.855024 2.855024 0 0 1-2.855024-2.855024v-10.871931a2.855024 2.855024 0 0 1 5.710048 0v10.871931a2.855024 2.855024 0 0 1-2.855024 2.855024z" fill="#91E2C5" p-id="4961"></path><path d="M1056.073338 494.124695a2.866444 2.866444 0 0 1-2.021356-0.833667l-7.697145-7.685724a2.855024 2.855024 0 0 1 4.037004-4.037004l7.697144 7.685725a2.855024 2.855024 0 0 1-2.015647 4.87067z" fill="#91E2C5" p-id="4962"></path><path d="M1064.547049 473.665594h-10.871931a2.855024 2.855024 0 0 1 0-5.710048h10.871931a2.855024 2.855024 0 0 1 0 5.710048z" fill="#91E2C5" p-id="4963"></path><path d="M1048.376194 460.897927a2.866444 2.866444 0 0 1-2.021357-4.87638l7.697145-7.685725a2.860734 2.860734 0 0 1 4.037003 4.042714l-7.697144 7.685724a2.843604 2.843604 0 0 1-2.015647 0.833667z" fill="#91E2C5" p-id="4964"></path><path d="M548.981125 252.018669a2.855024 2.855024 0 0 1-0.011421-5.710048l47.71887-0.199851h0.01142a2.855024 2.855024 0 0 1 0.01142 5.710048l-47.718869 0.199851h-0.01142z" fill="#F76C1D" p-id="4965"></path><path d="M572.592172 275.498386a2.855024 2.855024 0 0 1-2.855024-2.855024v-47.233516a2.855024 2.855024 0 0 1 5.710048 0v47.233516a2.855024 2.855024 0 0 1-2.855024 2.855024z" fill="#F76C1D" p-id="4966"></path><path d="M278.638912 274.80176a2.855024 2.855024 0 0 1-0.01142-5.710048l28.807191-0.119911h0.01142a2.855024 2.855024 0 0 1 0.01142 5.710048l-28.807191 0.119911h-0.01142z" fill="#5FFFF7" p-id="4967"></path><path d="M292.891191 288.974098a2.855024 2.855024 0 0 1-2.855024-2.855023v-28.510269a2.855024 2.855024 0 0 1 5.710048 0v28.510269a2.855024 2.855024 0 0 1-2.855024 2.855023z" fill="#5FFFF7" p-id="4968"></path></svg>