<?xml version="1.0" standalone="no"?><!DOCTYPE svg PUBLIC "-//W3C//DTD SVG 1.1//EN" "http://www.w3.org/Graphics/SVG/1.1/DTD/svg11.dtd"><svg t="1590648729150" class="icon" viewBox="0 0 1024 1024" version="1.1" xmlns="http://www.w3.org/2000/svg" p-id="3858" xmlns:xlink="http://www.w3.org/1999/xlink" width="200" height="200"><defs><style type="text/css"></style></defs><path d="M990.608696 1023.821913H33.391304V0.133565h957.217392v1023.688348zM77.913043 978.988522h868.173914V44.966957H77.913043v934.021565z m425.494261 24.776348h-44.521739V39.846957h44.521739v963.895652z m394.440348-151.79687H549.10887v-44.833391h348.738782v44.833391z m0-134.500174H549.10887v-44.833391h348.738782v44.833391z m0-306.354087H549.10887V115.934609h348.738782v295.17913z m-304.217043-44.833391h259.695304V160.768H593.630609v205.490087z m37.086608 229.776695a69.12 69.12 0 1 1 68.652522-69.12 69.008696 69.008696 0 0 1-68.652522 69.09774z m0-93.495652a24.286609 24.286609 0 1 0 24.130783 24.286609 24.219826 24.219826 0 0 0-24.130783-24.219826z m178.086957 93.495652a69.12 69.12 0 1 1 68.652522-69.12 69.008696 69.008696 0 0 1-68.652522 69.09774z m0-93.495652a24.286609 24.286609 0 1 0 24.130783 24.286609 24.219826 24.219826 0 0 0-24.130783-24.219826z m-171.831652 411.536696h-44.521739v-156.91687h44.521739v156.91687z m-356.173913 89.666783h-44.521739V39.846957h44.521739v963.895652z m155.826087-358.667131h-44.521739v-112.083478h44.521739v112.083478z m-222.608696 0h-44.521739v-112.083478h44.521739v112.083478z m-9.950609-358.221913h-111.304348V171.987478h111.304348v114.888348z m-66.782608-44.833391h22.260869V216.82087h-22.260869v25.221565z m289.391304 44.833391h-111.304348V171.987478h111.304348v114.888348z m-66.782609-44.833391h22.26087V216.82087h-22.26087v25.221565z" p-id="3859"></path></svg>