<?xml version="1.0" standalone="no"?><!DOCTYPE svg PUBLIC "-//W3C//DTD SVG 1.1//EN" "http://www.w3.org/Graphics/SVG/1.1/DTD/svg11.dtd"><svg t="1595837795233" class="icon" viewBox="0 0 1024 1024" version="1.1" xmlns="http://www.w3.org/2000/svg" p-id="2624" xmlns:xlink="http://www.w3.org/1999/xlink" width="200" height="200"><defs><style type="text/css"></style></defs><path d="M241.777778 569.457778V256a28.444444 28.444444 0 1 1 56.888889 0v264.704l108.529777-59.875556 162.133334 73.841778L747.52 350.008889a28.444444 28.444444 0 0 1 40.931556 39.509333L582.343111 603.107556l-172.700444-78.648889L298.666667 585.671111V682.666667h469.333333a28.444444 28.444444 0 1 1 0 56.888889H241.777778V569.457778zM796.444444 924.444444v33.194667A66.360889 66.360889 0 0 1 730.083556 1024H293.916444A66.360889 66.360889 0 0 1 227.555556 957.639111V924.444444h-45.738667A124.928 124.928 0 0 1 56.888889 799.516444V124.928A124.928 124.928 0 0 1 181.816889 0h660.366222A124.928 124.928 0 0 1 967.111111 124.928v674.588444A124.928 124.928 0 0 1 842.183111 924.444444H796.444444zM181.816889 85.333333A39.594667 39.594667 0 0 0 142.222222 124.928v674.588444A39.594667 39.594667 0 0 0 181.816889 839.111111h660.366222A39.594667 39.594667 0 0 0 881.777778 799.516444V124.928A39.594667 39.594667 0 0 0 842.183111 85.333333H181.816889z" p-id="2625"></path></svg>