<?xml version="1.0" standalone="no"?><!DOCTYPE svg PUBLIC "-//W3C//DTD SVG 1.1//EN" "http://www.w3.org/Graphics/SVG/1.1/DTD/svg11.dtd"><svg t="1595573048341" class="icon" viewBox="0 0 1024 1024" version="1.1" xmlns="http://www.w3.org/2000/svg" p-id="27825" xmlns:xlink="http://www.w3.org/1999/xlink" width="200" height="200"><defs><style type="text/css"></style></defs><path d="M516.5 530.6m-428.9 0a428.9 428.9 0 1 0 857.8 0 428.9 428.9 0 1 0-857.8 0Z" fill="#707070" p-id="27826" data-spm-anchor-id="a313x.7781069.0.i23" class="selected"></path><path d="M516.5 530.6m-393.7 0a393.7 393.7 0 1 0 787.4 0 393.7 393.7 0 1 0-787.4 0Z" fill="#FFFFFF" p-id="27827"></path><path d="M516.5 533m-360 0a360 360 0 1 0 720 0 360 360 0 1 0-720 0Z" fill="#707070" p-id="27828" data-spm-anchor-id="a313x.7781069.0.i24" class="selected"></path><path d="M781.3 493.7c-2.2-16.2-14.1-29.3-29.9-33.4-20.6-5.4-39.2-18.7-50.7-38.6-11.7-20.3-13.8-43.5-7.8-64.3 4.4-15-1.1-31.2-13.4-40.8-19.7-15.5-41.5-28.1-64.7-37.6-4.8-2-10-3-15.1-3-10.7 0-21.1 4.3-28.9 12.2-15 15.2-35.8 24.6-58.8 24.6s-43.8-9.4-58.8-24.6c-7.8-7.9-18.3-12.2-28.9-12.2-5.2 0-10.3 1-15.1 3-23.2 9.5-44.9 22.1-64.7 37.6-12.3 9.7-17.8 25.8-13.4 40.8 6.1 20.8 4 44-7.8 64.3-11.5 19.9-30.1 33.2-50.7 38.6-15.8 4.1-27.7 17.2-29.9 33.4-1.7 12.2-2.5 24.6-2.5 36.9 0 12.5 0.8 24.8 2.5 36.9 2.2 16.2 14.1 29.3 29.9 33.4 20.6 5.4 39.2 18.7 50.7 38.6 11.7 20.3 13.8 43.5 7.8 64.3-4.4 15 1.1 31.2 13.4 40.8 19.6 15.3 41.3 28 64.7 37.6 4.8 2 10 3 15.1 3 10.7 0 21.1-4.3 28.9-12.2 15-15.2 35.8-24.6 58.8-24.6s43.8 9.4 58.8 24.6c7.8 7.9 18.3 12.2 28.9 12.2 5.2 0 10.3-1 15.1-3 23.2-9.5 44.9-22.1 64.7-37.6 12.3-9.7 17.8-25.8 13.4-40.8-6.1-20.8-4-44 7.8-64.3 11.5-19.9 30.1-33.2 50.7-38.6 15.8-4.1 27.7-17.2 29.9-33.4 1.7-12.2 2.5-24.6 2.5-36.9 0-12.5-0.8-24.8-2.5-36.9zM512 633.7c-56.8 0-103-46.2-103-103s46.2-103 103-103 103 46.2 103 103c0 56.7-46.2 103-103 103z m0 0" fill="#FCFCFC" p-id="27829"></path></svg>