<?xml version="1.0" standalone="no"?><!DOCTYPE svg PUBLIC "-//W3C//DTD SVG 1.1//EN" "http://www.w3.org/Graphics/SVG/1.1/DTD/svg11.dtd"><svg t="1589433581765" class="icon" viewBox="0 0 1024 1024" version="1.1" xmlns="http://www.w3.org/2000/svg" p-id="5154" xmlns:xlink="http://www.w3.org/1999/xlink" width="200" height="200"><defs><style type="text/css"></style></defs><path d="M600.926316 471.578947s-45.810526-26.947368-88.926316-26.947368c-48.505263 0-88.926316 26.947368-88.926316 26.947368V172.463158c0-48.505263 40.421053-88.926316 88.926316-88.926316 48.505263 0 88.926316 40.421053 88.926316 88.926316v299.115789zM355.705263 582.063158s0 53.894737 21.557895 88.926316c24.252632 43.115789 70.063158 61.978947 70.063158 61.978947L188.631579 883.873684c-43.115789 24.252632-97.010526 10.778947-121.263158-32.336842-24.252632-43.115789-10.778947-97.010526 32.336842-121.263158l256-148.210526zM665.6 582.063158s0 53.894737-21.557895 88.926316c-24.252632 43.115789-70.063158 61.978947-70.063158 61.978947l258.694737 150.905263c43.115789 24.252632 97.010526 10.778947 121.263158-32.336842 24.252632-43.115789 10.778947-97.010526-32.336842-121.263158l-256-148.210526z" fill="#10ABFF" opacity=".5" p-id="5155"></path><path d="M512 509.305263c-45.810526 0-80.842105 37.726316-80.842105 80.842105s37.726316 80.842105 80.842105 80.842106 80.842105-37.726316 80.842105-80.842106-35.031579-80.842105-80.842105-80.842105z m0 126.652632c-24.252632 0-43.115789-18.863158-43.115789-43.11579s18.863158-43.115789 43.115789-43.115789 43.115789 18.863158 43.115789 43.115789-18.863158 43.115789-43.115789 43.11579z" fill="#10ABFF" p-id="5156"></path><path d="M986.273684 781.473684c-8.084211-26.947368-24.252632-51.2-48.505263-64.673684L684.463158 565.894737c-5.389474-45.810526-29.642105-83.536842-64.673684-110.484211V172.463158c0-59.284211-48.505263-107.789474-107.789474-107.789474s-107.789474 48.505263-107.789474 107.789474v282.947368c-35.031579 26.947368-56.589474 64.673684-64.673684 110.484211l-253.305263 148.210526C35.031579 743.747368 18.863158 811.115789 48.505263 862.315789c18.863158 35.031579 56.589474 53.894737 91.621053 53.894737 18.863158 0 37.726316-5.389474 53.894737-13.473684l250.610526-145.515789c18.863158 8.084211 43.115789 13.473684 64.673684 13.473684 21.557895 0 43.115789-5.389474 61.978948-10.778948l250.610526 145.51579c16.168421 10.778947 35.031579 13.473684 53.894737 13.473684 37.726316 0 72.757895-18.863158 91.621052-53.894737 21.557895-26.947368 24.252632-56.589474 18.863158-83.536842zM441.936842 172.463158c0-37.726316 32.336842-70.063158 70.063158-70.063158 37.726316 0 70.063158 32.336842 70.063158 70.063158V431.157895c-21.557895-8.084211-45.810526-13.473684-70.063158-13.473684-24.252632 0-48.505263 5.389474-70.063158 16.168421V172.463158zM177.852632 867.705263c-32.336842 18.863158-75.452632 8.084211-94.31579-24.252631-21.557895-35.031579-10.778947-75.452632 24.252632-97.010527l231.747368-137.431579c5.389474 48.505263 32.336842 91.621053 70.063158 121.263158l-231.747368 137.431579zM377.263158 592.842105c0-75.452632 61.978947-137.431579 137.431579-137.431579s137.431579 61.978947 137.431579 137.431579-64.673684 134.736842-140.126316 134.736842c-75.452632 0-134.736842-59.284211-134.736842-134.736842z m522.778947 282.947369c-18.863158 5.389474-37.726316 2.694737-53.894737-8.084211l-231.747368-134.736842c37.726316-26.947368 64.673684-72.757895 70.063158-121.263158l231.747368 134.736842c32.336842 18.863158 43.115789 61.978947 24.252632 94.31579-8.084211 18.863158-24.252632 29.642105-40.421053 35.031579z" fill="#10ABFF" p-id="5157"></path><path d="M789.557895 423.073684c2.694737 5.389474 10.778947 10.778947 16.168421 10.778948 2.694737 0 5.389474 0 8.08421-2.694737 8.084211-5.389474 13.473684-16.168421 8.084211-26.947369-18.863158-35.031579-53.894737-75.452632-83.536842-97.010526-8.084211-5.389474-18.863158-5.389474-26.947369 2.694737s-5.389474 18.863158 2.694737 26.947368c26.947368 16.168421 59.284211 56.589474 75.452632 86.231579zM819.2 498.526316c5.389474 8.084211 8.084211 18.863158 8.084211 37.726316 0 10.778947 8.084211 16.168421 18.863157 16.168421h2.694737c10.778947 0 18.863158-10.778947 16.168421-21.557895-2.694737-24.252632-5.389474-37.726316-13.473684-51.2-5.389474-8.084211-16.168421-13.473684-24.252631-8.084211-8.084211 5.389474-13.473684 16.168421-8.084211 26.947369zM630.568421 900.042105c-26.947368 10.778947-75.452632 21.557895-107.789474 21.557895-10.778947 0-18.863158 8.084211-18.863158 18.863158 0 10.778947 8.084211 18.863158 18.863158 18.863158 37.726316 0 91.621053-10.778947 123.957895-24.252632 10.778947-5.389474 13.473684-16.168421 10.778947-24.252631-8.084211-10.778947-18.863158-16.168421-26.947368-10.778948zM439.242105 908.126316c-10.778947 0-21.557895-2.694737-37.726316-10.778948-8.084211-5.389474-21.557895 0-24.252631 8.084211-5.389474 10.778947 0 21.557895 8.08421 24.252632 21.557895 10.778947 35.031579 13.473684 51.2 13.473684 10.778947 0 18.863158-8.084211 18.863158-18.863158 2.694737-8.084211-5.389474-16.168421-16.168421-16.168421zM161.684211 549.726316h2.694736c8.084211 0 16.168421-5.389474 18.863158-16.168421 5.389474-29.642105 24.252632-75.452632 43.11579-105.094737 5.389474-8.084211 2.694737-21.557895-5.389474-26.947369-8.084211-5.389474-21.557895-2.694737-26.947368 5.389474-21.557895 32.336842-43.115789 83.536842-48.505264 118.568421-2.694737 10.778947 5.389474 21.557895 16.168422 24.252632zM264.084211 377.263158c5.389474 0 10.778947-2.694737 16.168421-8.084211 5.389474-8.084211 13.473684-16.168421 29.642105-24.252631 8.084211-5.389474 10.778947-16.168421 5.389474-26.947369-5.389474-8.084211-16.168421-10.778947-26.947369-5.389473-18.863158 13.473684-32.336842 21.557895-40.421053 35.031579-5.389474 8.084211-2.694737 21.557895 5.389474 26.947368 5.389474 2.694737 8.084211 2.694737 10.778948 2.694737z" fill="#10ABFF" p-id="5158"></path></svg>