<?xml version="1.0" standalone="no"?><!DOCTYPE svg PUBLIC "-//W3C//DTD SVG 1.1//EN" "http://www.w3.org/Graphics/SVG/1.1/DTD/svg11.dtd"><svg t="1591338872066" class="icon" viewBox="0 0 1024 1024" version="1.1" xmlns="http://www.w3.org/2000/svg" p-id="11206" xmlns:xlink="http://www.w3.org/1999/xlink" width="200" height="200"><defs><style type="text/css"></style></defs><path d="M701.44 512H546.133333v-34.133333h155.306667a85.367467 85.367467 0 0 1 168.96 17.066666 85.333333 85.333333 0 0 1-168.96 17.066667zM733.866667 853.333333a85.333333 85.333333 0 1 1 0-170.666666 85.333333 85.333333 0 0 1 0 170.666666z m0-34.133333a51.2 51.2 0 1 0 0-102.4 51.2 51.2 0 0 0 0 102.4z" p-id="11207" ></path><path d="M512 733.866667V324.266667a17.066667 17.066667 0 0 1 34.133333 0v392.533333a34.133333 34.133333 0 0 0 34.133334 34.133333h85.333333v34.133334h-102.4a51.2 51.2 0 0 1-51.2-51.2zM356.693333 563.2H512v34.133333h-155.306667a85.367467 85.367467 0 0 1-168.96-17.066666 85.333333 85.333333 0 0 1 168.96-17.066667zM273.066667 631.466667a51.2 51.2 0 1 0 0-102.4 51.2 51.2 0 0 0 0 102.4z" p-id="11208" ></path><path d="M529.066667 170.666667l85.333333 85.333333a85.333333 85.333333 0 1 1-85.333333-85.333333z m0 136.533333a51.2 51.2 0 1 0 0-102.4 51.2 51.2 0 0 0 0 102.4z" p-id="11209" ></path></svg>