<?xml version="1.0" standalone="no"?><!DOCTYPE svg PUBLIC "-//W3C//DTD SVG 1.1//EN" "http://www.w3.org/Graphics/SVG/1.1/DTD/svg11.dtd"><svg t="1596892527669" class="icon" viewBox="0 0 1024 1024" version="1.1" xmlns="http://www.w3.org/2000/svg" p-id="6665" xmlns:xlink="http://www.w3.org/1999/xlink" width="128" height="128"><defs><style type="text/css"></style></defs><path d="M462.48 954.766a76.546 76.546 0 0 1-11.155 0.814c-41.93 0-75.922-33.988-75.926-75.918V432.47c0-20.435-16.566-37-37.001-37h-135.72a24.828 24.828 0 0 1-25.308-24.384c0-5.81 2.146-11.434 6.105-15.837L432.121 76.08a26.012 26.012 0 0 1 38.407 0l248.646 279.17a23.718 23.718 0 0 1-2.739 34.337 25.9 25.9 0 0 1-16.465 5.883H564.251c-20.435 0-37 16.566-37 37.001v170.395c65.672-56.833 151.612-91.264 245.674-91.264h-0.037a74.372 74.372 0 0 1 74.742 74.002c0 40.886-33.45 74.001-74.742 74.001-123.768 0-224.114 99.385-224.114 222.005 0 40.886-33.449 74.002-74.742 74.002a74.933 74.933 0 0 1-11.551-0.845z" p-id="6666"></path></svg>