<?xml version="1.0" standalone="no"?><!DOCTYPE svg PUBLIC "-//W3C//DTD SVG 1.1//EN" "http://www.w3.org/Graphics/SVG/1.1/DTD/svg11.dtd"><svg t="1589871434965" class="icon" viewBox="0 0 1034 1024" version="1.1" xmlns="http://www.w3.org/2000/svg" p-id="2305" xmlns:xlink="http://www.w3.org/1999/xlink" width="201.953125" height="200"><defs><style type="text/css"></style></defs><path d="M40.1024 345.6l448 224c6.4 6.4 12.8 6.4 25.6 6.4s19.2 0 25.6-6.4l448-224c25.6-12.8 38.4-32 38.4-57.6s-12.8-44.8-38.4-57.6L539.3024 6.4C532.9024 0 526.5024 0 513.7024 0s-19.2 0-25.6 6.4l-448 224c-25.6 12.8-38.4 32-38.4 57.6s12.8 44.8 38.4 57.6zM513.7024 64l448 224L513.7024 512 65.7024 288 513.7024 64z" fill="#ffffff" p-id="2306"></path><path d="M20.9024 576l480 192h25.6l480-192c19.2-6.4 25.6-25.6 19.2-38.4-6.4-19.2-25.6-25.6-38.4-19.2L513.7024 704 46.5024 512c-19.2-6.4-38.4 6.4-44.8 19.2-6.4 19.2 6.4 38.4 19.2 44.8z" fill="#ffffff" p-id="2307"></path><path d="M980.9024 768L513.7024 960 46.5024 768c-19.2-6.4-32 0-38.4 19.2-6.4 19.2 0 32 19.2 38.4l480 192h25.6l480-192c19.2-6.4 25.6-25.6 19.2-38.4-12.8-12.8-32-25.6-51.2-19.2z" fill="#ffffff" p-id="2308"></path></svg>