<?xml version="1.0" standalone="no"?><!DOCTYPE svg PUBLIC "-//W3C//DTD SVG 1.1//EN" "http://www.w3.org/Graphics/SVG/1.1/DTD/svg11.dtd"><svg t="1590656853919" class="icon" viewBox="0 0 1024 1024" version="1.1" xmlns="http://www.w3.org/2000/svg" p-id="2239" xmlns:xlink="http://www.w3.org/1999/xlink" width="200" height="200"><defs><style type="text/css"></style></defs><path d="M512 110c247.424 0 448 200.576 448 448 0 145.15-69.028 274.176-176.048 356.044l-8.764-0.008-535.091 0.045C133.049 832.215 64 703.17 64 558c0-247.424 200.576-448 448-448z m0 64c-212.077 0-384 171.923-384 384 0 113.95 49.895 219.524 134.379 291.814l0.31 0.263 438.792-0.046 59.881 0.001 0.297-0.25c83.563-71.521 133.276-175.608 134.324-288.149L896 558c0-212.077-171.923-384-384-384z" fill="#000000" p-id="2240"></path><path d="M512 558m-50 0a50 50 0 1 0 100 0 50 50 0 1 0-100 0Z" fill="#000000" p-id="2241"></path><path d="M728.374349 296.370817m22.627417 22.627417l0 0q22.627417 22.627417 0 45.254834l-31.112698 31.112698q-22.627417 22.627417-45.254834 0l0 0q-22.627417-22.627417 0-45.254834l31.112698-31.112698q22.627417-22.627417 45.254834 0Z" fill="#000000" p-id="2242"></path><path d="M480 220m32 0l0 0q32 0 32 32l0 44q0 32-32 32l0 0q-32 0-32-32l0-44q0-32 32-32Z" fill="#000000" p-id="2243"></path><path d="M616.012193 408.732973m22.627417 22.627417l0 0q22.627417 22.627417 0 45.254834l-82.024386 82.024386q-22.627417 22.627417-45.254834 0l0 0q-22.627417-22.627417 0-45.254834l82.024386-82.024386q22.627417-22.627417 45.254834 0Z" fill="#000000" p-id="2244"></path><path d="M850 526m0 32l0 0q0 32-32 32l-44 0q-32 0-32-32l0 0q0-32 32-32l44 0q32 0 32 32Z" fill="#000000" p-id="2245"></path><path d="M174 590m0-32l0 0q0-32 32-32l44 0q32 0 32 32l0 0q0 32-32 32l-44 0q-32 0-32-32Z" fill="#000000" p-id="2246"></path><path d="M250.370817 341.625651m22.627417-22.627417l0 0q22.627417-22.627417 45.254834 0l31.112698 31.112698q22.627417 22.627417 0 45.254834l0 0q-22.627417 22.627417-45.254834 0l-31.112698-31.112698q-22.627417-22.627417 0-45.254834Z" fill="#000000" p-id="2247"></path></svg>