<?xml version="1.0" standalone="no"?><!DOCTYPE svg PUBLIC "-//W3C//DTD SVG 1.1//EN" "http://www.w3.org/Graphics/SVG/1.1/DTD/svg11.dtd"><svg t="1592361559472" class="icon" viewBox="0 0 1024 1024" version="1.1" xmlns="http://www.w3.org/2000/svg" p-id="3572" xmlns:xlink="http://www.w3.org/1999/xlink" width="200" height="200"><defs><style type="text/css"></style></defs><path d="M364.8 633.6c-96 0-166.4-108.8-166.4-243.2 0-19.2 12.8-32 32-32s32 12.8 32 32c0 44.8 12.8 89.6 32 128 25.6 32 44.8 44.8 70.4 44.8s51.2-19.2 70.4-51.2c19.2-32 32-76.8 32-128 0-134.4 70.4-243.2 166.4-243.2s166.4 108.8 166.4 243.2c0 19.2-12.8 32-32 32s-32-12.8-32-32c0-44.8-12.8-89.6-32-128-19.2-32-44.8-51.2-70.4-51.2s-51.2 25.6-70.4 57.6c-19.2 32-32 76.8-32 128 0 134.4-70.4 243.2-166.4 243.2z" p-id="3573"></path><path d="M198.4 947.2c-51.2 0-160-19.2-160-128V198.4c0-128 83.2-192 160-192h620.8c96 0 160 64 160 166.4v230.4c0 19.2-12.8 44.8-38.4 44.8-32-6.4-44.8-19.2-44.8-44.8V185.6c0-70.4-64-96-89.6-96H204.8c-38.4 0-83.2 38.4-89.6 121.6v576c0 96 64 83.2 89.6 83.2h192c25.6-6.4 38.4 19.2 38.4 38.4s-12.8 38.4-38.4 38.4H198.4zM902.4 774.4h-96v-96c0-6.4-6.4-12.8-12.8-12.8H768c-6.4 0-12.8 6.4-12.8 12.8v134.4c0 6.4 6.4 12.8 12.8 12.8h134.4c6.4 0 12.8-6.4 12.8-12.8v-25.6c-6.4-12.8-6.4-12.8-12.8-12.8z" p-id="3574"></path><path d="M787.2 1024c-134.4 0-236.8-108.8-236.8-236.8s108.8-236.8 236.8-236.8 236.8 108.8 236.8 236.8-108.8 236.8-236.8 236.8z m0-409.6c-96 0-172.8 76.8-172.8 172.8s76.8 172.8 172.8 172.8 172.8-76.8 172.8-172.8-76.8-172.8-172.8-172.8z" p-id="3575"></path></svg>