<?xml version="1.0" standalone="no"?><!DOCTYPE svg PUBLIC "-//W3C//DTD SVG 1.1//EN" "http://www.w3.org/Graphics/SVG/1.1/DTD/svg11.dtd"><svg t="1589432440186" class="icon" viewBox="0 0 1024 1024" version="1.1" xmlns="http://www.w3.org/2000/svg" p-id="11042" xmlns:xlink="http://www.w3.org/1999/xlink" width="200" height="200"><defs><style type="text/css"></style></defs><path d="M743.936 879.104a24.576 24.576 0 0 0-27.136 20.992c0 11.776-13.824 20.992-30.72 20.992H614.4a29.184 29.184 0 0 1-30.72-27.648 69.12 69.12 0 0 1 24.064-47.104L716.8 688.64c6.656-15.36 13.312-32.256 14.848-37.376a318.976 318.976 0 0 0 3.072-51.2V259.584a30.72 30.72 0 0 0-30.72-30.72h-28.672c-16.896 0-30.72-6.656-30.72-14.336s-13.824-14.336-30.72-14.336h-204.8c-16.896 0-30.72 6.656-30.72 14.336s-13.824 14.336-30.72 14.336h-24.064a30.72 30.72 0 0 0-30.72 30.72v382.976a395.264 395.264 0 0 0 16.896 46.08l111.104 157.696a69.12 69.12 0 0 1 24.064 47.104 29.184 29.184 0 0 1-30.72 27.648H344.064c-16.896 0-30.72-9.216-30.72-20.992a24.576 24.576 0 0 0-27.136-20.992 24.576 24.576 0 0 0-27.136 20.992v47.104a26.624 26.624 0 0 0 27.136 26.112h457.728a26.624 26.624 0 0 0 27.136-26.112v-47.104a24.576 24.576 0 0 0-27.136-20.992z m-71.68-275.456a208.896 208.896 0 0 1 0 34.304 37.888 37.888 0 0 0 0 7.68s-6.656 16.384-13.312 31.744l-47.616 73.216c-12.288 11.264-22.528 12.288-22.528 0s-5.632-18.432-12.8-18.432-12.8-13.824-12.8-30.72V367.616a30.72 30.72 0 0 1 30.72-30.72h51.2a30.72 30.72 0 0 1 30.72 30.72z m-296.448 73.728c-7.168-15.36-13.312-30.208-13.824-32.256a43.52 43.52 0 0 0-3.584-8.192 208.384 208.384 0 0 1 0-34.304V367.616a30.72 30.72 0 0 1 30.72-30.72h51.2a30.72 30.72 0 0 1 30.72 30.72v336.384c0 16.896-5.632 30.72-12.8 30.72s-12.8 8.192-12.8 18.432-10.24 8.704-22.528 0zM647.168 166.4c0-8.704-13.824-15.872-30.72-15.872h-204.8c-16.896 0-30.72 7.168-30.72 15.872s13.824 15.872 30.72 15.872h204.8c16.896 0 30.72-7.168 30.72-15.872zM647.168 116.736c0-8.704-13.824-15.872-30.72-15.872h-204.8c-16.896 0-30.72 7.168-30.72 15.872s13.824 15.872 30.72 15.872h204.8c16.896 0 30.72-7.168 30.72-15.872zM614.4 67.072c0-8.704-13.824-15.872-30.72-15.872H448.512c-16.896 0-30.72 7.168-30.72 15.872s13.824 15.872 30.72 15.872h133.12c16.896 0 32.768-7.168 32.768-15.872z" p-id="11043"></path></svg>