<?xml version="1.0" standalone="no"?><!DOCTYPE svg PUBLIC "-//W3C//DTD SVG 1.1//EN" "http://www.w3.org/Graphics/SVG/1.1/DTD/svg11.dtd"><svg t="1596891943969" class="icon" viewBox="0 0 1227 1024" version="1.1" xmlns="http://www.w3.org/2000/svg" p-id="4684" xmlns:xlink="http://www.w3.org/1999/xlink" width="153.375" height="128"><defs><style type="text/css"></style></defs><path d="M613.347628 219.156225c149.788067 0.245594 275.041246 113.900575 289.801474 262.957998 14.747948 149.057423-85.792288 285.06764-232.620942 314.674054-146.834793 29.606413-292.226719-56.812141-336.390745-199.938458-44.164025-143.132457 27.260986-296.438664 165.248239-354.712092a291.029446 291.029446 0 0 1 113.968114-22.981502h-0.00614z m0.00614-73.7336c-202.437381 0.00614-366.574305 164.118504-366.574305 366.574305s164.136924 366.537466 366.568165 366.537466 366.568165-164.100085 366.568165-366.537466c0-202.449661-164.112364-366.568165-366.568165-366.568165l0.00614-0.00614" p-id="4685"></path></svg>